<?xml version="1.0" encoding="UTF-8" standalone="no"?>
<!DOCTYPE svg PUBLIC "-//W3C//DTD SVG 1.1//EN" "http://www.w3.org/Graphics/SVG/1.1/DTD/svg11.dtd">
<svg width="100%" height="100%" viewBox="0 0 384 278" version="1.1" xmlns="http://www.w3.org/2000/svg" xmlns:xlink="http://www.w3.org/1999/xlink" xml:space="preserve" xmlns:serif="http://www.serif.com/" style="fill-rule:evenodd;clip-rule:evenodd;stroke-linejoin:round;stroke-miterlimit:2;">
    <g>
        <g>
            <clipPath id="_clip1">
                <rect x="0" y="0" width="384" height="278"/>
            </clipPath>
            <g clip-path="url(#_clip1)">
                <path d="M101.973,127.75C101.973,123.605 98.613,120.246 94.469,120.246L7.461,120.246C-2.492,120.645 -2.484,134.855 7.461,135.25L94.469,135.25C98.613,135.25 101.973,131.891 101.973,127.75Z" style="fill-rule:nonzero;"/>
                <path d="M131.973,187.754L41.965,187.754C32.012,188.152 32.02,202.363 41.965,202.758L131.973,202.758C141.926,202.359 141.918,188.148 131.973,187.754Z" style="fill-rule:nonzero;"/>
                <path d="M41.965,67.742L131.973,67.742C141.926,67.348 141.918,53.133 131.973,52.742L41.965,52.742C32.012,53.137 32.02,67.352 41.965,67.742Z" style="fill-rule:nonzero;"/>
                <path d="M346.496,187.754L336.496,187.754L302.848,107L321.797,88.047C324.727,85.117 324.727,80.367 321.797,77.438L246.789,2.43C243.859,-0.496 239.109,-0.496 236.18,2.43L123.668,114.941C120.738,117.871 120.738,122.621 123.668,125.551L273.684,275.566C275.09,276.973 277,277.766 278.988,277.766L376.5,277.766C380.641,277.766 384,274.406 384,270.262L384,225.258C384,204.578 367.176,187.754 346.496,187.754ZM369,225.258L369,232.758L297.098,232.758L252.824,188.488L287.645,181.523L294.566,198.141C295.734,200.938 298.465,202.758 301.492,202.758L346.496,202.758C358.902,202.758 369,212.852 369,225.258ZM218.984,40.848L275.883,97.746L263.988,97.746C258.765,97.629 254.949,103.359 257.062,108.133L265.719,128.902L205.32,140.98L162.086,97.746L218.984,40.848ZM306.492,187.754L275.238,112.746L288.992,112.746L320.246,187.754L306.492,187.754ZM293.992,94.637L229.59,30.238L241.484,18.344L305.883,82.746L293.992,94.637ZM139.582,120.246L151.477,108.355L288.688,245.566C290.094,246.973 292,247.762 293.992,247.762L369,247.762L369,262.762L282.098,262.762L139.582,120.246Z" style="fill-rule:nonzero;"/>
            </g>
        </g>
    </g>
</svg>
